<?xml version="1.0" encoding="UTF-8"?>
<svg version="1.1" xmlns="http://www.w3.org/2000/svg" width="200" height="200">
<path d="M0 0 C66 0 132 0 200 0 C200 66 200 132 200 200 C134 200 68 200 0 200 C0 134 0 68 0 0 Z " fill="#010100" transform="translate(0,0)"/>
<path d="M0 0 C1.77384243 2.66076365 3.21488995 5.29274724 4.6875 8.125 C14.78888643 26.53520068 31.34332814 36.37651212 51.0625 42.3125 C53.36748048 42.9050601 55.68040666 43.46750657 58 44 C59.18207031 44.27457031 60.36414063 44.54914062 61.58203125 44.83203125 C81.04460822 48.90093251 101.18828414 49.31240377 121 50 C121 50.33 121 50.66 121 51 C36.78986176 52.07053765 36.78986176 52.07053765 7.66015625 24.8828125 C6 23 6 23 6 21 C5.34 21 4.68 21 4 21 C4 33.21 4 45.42 4 58 C10.084375 57.95875 16.16875 57.9175 22.4375 57.875 C50.96583434 57.82280641 78.99503893 59.75187954 107.26855469 63.50634766 C110.7840554 63.97143156 114.30146732 64.41652216 117.8203125 64.85546875 C119.81782918 65.11103639 121.81523425 65.3674787 123.8125 65.625 C124.70155029 65.73577881 125.59060059 65.84655762 126.5065918 65.96069336 C127.31523682 66.06905518 128.12388184 66.17741699 128.95703125 66.2890625 C129.99307495 66.42368896 129.99307495 66.42368896 131.05004883 66.56103516 C133.25559823 67.0575392 135.02261182 67.91861152 137 69 C133.83298152 68.88154852 130.66654618 68.75513203 127.5 68.625 C126.65179688 68.5940625 125.80359375 68.563125 124.9296875 68.53125 C117.8683046 68.23288171 110.84099026 67.66724853 103.80078125 67.0625 C91.10668371 65.97745922 78.4058143 65.11995968 65.6875 64.375 C64.01524353 64.27594864 64.01524353 64.27594864 62.3092041 64.17489624 C42.82171253 63.0383171 23.52280546 62.74312098 4 63 C3.67 72.9 3.34 82.8 3 93 C1 91 1 91 0.77294922 88.20263672 C0.78342285 87.04006348 0.79389648 85.87749023 0.8046875 84.6796875 C0.81113281 83.42285156 0.81757812 82.16601562 0.82421875 80.87109375 C0.84097656 79.55238281 0.85773437 78.23367187 0.875 76.875 C0.88503017 75.53516279 0.89415596 74.19531848 0.90234375 72.85546875 C0.92597925 69.57013427 0.95892766 66.28515535 1 63 C-12.53632329 63.94435522 -25.71682583 65.19933075 -39 68 C-40.99825099 68.34366276 -42.99774496 68.68049122 -45 69 C-41.53418664 65.95186158 -37.71977048 64.72851752 -33.375 63.4375 C-32.65642822 63.22061523 -31.93785645 63.00373047 -31.19750977 62.78027344 C-20.76897056 59.68772879 -10.85302482 58.59198317 0 58 C0 49.42 0 40.84 0 32 C-0.66 32 -1.32 32 -2 32 C-2.33837891 32.87978516 -2.33837891 32.87978516 -2.68359375 33.77734375 C-6.37844322 40.01582847 -15.31153895 43.59385976 -22.05078125 45.578125 C-24.41106981 46.08896902 -26.59528781 46.23271408 -29 46 C-26.72370251 43.72370251 -24.33106929 42.6796097 -21.43823242 41.33569336 C-13.03030198 37.40423777 -7.21701619 34.01234256 -3.1875 25.375 C-1.17366485 19.65146851 -0.74488648 14.19917322 -0.4375 8.1875 C-0.37272461 7.00510742 -0.37272461 7.00510742 -0.30664062 5.79882812 C-0.20121679 3.86605785 -0.10016906 1.93304974 0 0 Z " fill="#DFBA58" transform="translate(51,17)"/>
<path d="M0 0 C22.63636364 0 22.63636364 0 28.875 5.71875 C32.93143222 12.14143436 33.15296124 18.80222394 31.5234375 26.1484375 C29.86198737 30.73243845 26.93591998 33.29887844 23 36 C17 38 17 38 0 38 C0 25.46 0 12.92 0 0 Z " fill="#0C0802" transform="translate(139,129)"/>
<path d="M0 0 C3.34125 -0.0825 6.6825 -0.165 10.125 -0.25 C11.16672363 -0.28641602 12.20844727 -0.32283203 13.28173828 -0.36035156 C19.20698988 -0.43101238 22.46607483 0.10528395 27 4 C28 5 28 5 28.25 8.8125 C28.22364276 12.49592468 27.54422149 14.24376005 25 17 C25 17.66 25 18.32 25 19 C26.2375 20.11375 26.2375 20.11375 27.5 21.25 C30 24 30 24 30.5 27 C29.92448197 30.45310815 29.20721339 32.27777015 27 35 C21.52886049 38.66496204 16.44988658 38.35332649 10.125 38.1875 C6.78375 38.125625 3.4425 38.06375 0 38 C0 25.46 0 12.92 0 0 Z " fill="#DCBA64" transform="translate(43,129)"/>
<path d="M0 0 C5.0428125 -0.0928125 5.0428125 -0.0928125 10.1875 -0.1875 C11.76374146 -0.22846802 11.76374146 -0.22846802 13.37182617 -0.27026367 C21.98198648 -0.34704427 21.98198648 -0.34704427 26 3 C26.58910156 3.45632812 27.17820312 3.91265625 27.78515625 4.3828125 C29.9149066 7.21791425 29.46133735 10.13279165 29.3515625 13.55078125 C28.84842099 17.05600046 27.69663711 18.7406554 25 21 C23.34534883 21.38861084 21.6781 21.73005688 20 22 C20.53109375 22.65226562 21.0621875 23.30453125 21.609375 23.9765625 C25.2919857 28.53278523 28.8705616 33.04505587 32 38 C29.36328125 38.43359375 29.36328125 38.43359375 26 38 C23.10397999 35.45483842 20.99106236 32.19013278 18.76367188 29.06445312 C15.8561241 25.27511186 15.8561241 25.27511186 11.60791016 23.33544922 C8.85013016 22.98892635 8.85013016 22.98892635 5 23 C5 27.95 5 32.9 5 38 C3.35 38 1.7 38 0 38 C0 25.46 0 12.92 0 0 Z " fill="#E1BB56" transform="translate(82,129)"/>
<path d="M0 0 C22.63636364 0 22.63636364 0 28.875 5.71875 C32.93143222 12.14143436 33.15296124 18.80222394 31.5234375 26.1484375 C29.86198737 30.73243845 26.93591998 33.29887844 23 36 C17 38 17 38 0 38 C0 25.46 0 12.92 0 0 Z M4 4 C4 13.9 4 23.8 4 34 C14.76560372 34.29415033 14.76560372 34.29415033 24 30 C28.0136798 24.70303482 27.76163494 19.38734757 27 13 C25.20234119 8.90133791 23.76688019 7.47930012 20 5.125 C14.76723021 3.45850885 14.76723021 3.45850885 4 4 Z " fill="#D3B663" transform="translate(139,129)"/>
<path d="M0 0 C2.5740948 1.98573028 4.95054803 3.9477222 7.1875 6.3125 C34.31727075 32.23650317 76.96861007 31.78418144 112 33 C112 33.33 112 33.66 112 34 C27.37435525 35.07581985 27.37435525 35.07581985 0.22265625 9.25 C-0.18082031 8.8375 -0.58429687 8.425 -1 8 C-0.34 7.67 0.32 7.34 1 7 C0.67 4.69 0.34 2.38 0 0 Z " fill="#D5B556" transform="translate(60,34)"/>
<path d="M0 0 C2.206875 -0.061875 4.41375 -0.12375 6.6875 -0.1875 C8.54955078 -0.23970703 8.54955078 -0.23970703 10.44921875 -0.29296875 C14.23741695 0.01958886 16.09835026 0.5682973 19 3 C19.8303395 5.7095289 19.53713619 8.23345981 19 11 C17.18836733 13.67431489 16.12238923 13.95920359 13 15 C8.66328697 15.13501597 4.33988266 15.04296914 0 15 C0 10.05 0 5.1 0 0 Z " fill="#0E0902" transform="translate(87,133)"/>
<path d="M0 0 C5.0428125 -0.0928125 5.0428125 -0.0928125 10.1875 -0.1875 C11.76374146 -0.22846802 11.76374146 -0.22846802 13.37182617 -0.27026367 C21.98198648 -0.34704427 21.98198648 -0.34704427 26 3 C26.59425781 3.44988281 27.18851563 3.89976562 27.80078125 4.36328125 C29.49625294 6.67729636 29.29775721 8.35756485 29.1875 11.1875 C29.16042969 12.08855469 29.13335937 12.98960937 29.10546875 13.91796875 C29.07066406 14.60503906 29.03585938 15.29210937 29 16 C28.67 16 28.34 16 28 16 C27.505 11.05 27.505 11.05 27 6 C26.34 6 25.68 6 25 6 C25 9.3 25 12.6 25 16 C24.01 16 23.02 16 22 16 C22.33 15.67 22.66 15.34 23 15 C23.07148199 13.64756083 23.08399454 12.29165633 23.0625 10.9375 C23.041875 9.638125 23.02125 8.33875 23 7 C17.6658339 3.68635136 11.07172495 4.33731805 5 4 C5 8.95 5 13.9 5 19 C4.34 18.67 3.68 18.34 3 18 C2.67 16.35 2.34 14.7 2 13 C1.67 20.92 1.34 28.84 1 37 C1.99 37 2.98 37 4 37 C4 32.38 4 27.76 4 23 C4.33 23 4.66 23 5 23 C5 27.95 5 32.9 5 38 C3.35 38 1.7 38 0 38 C0 25.46 0 12.92 0 0 Z " fill="#D0B05A" transform="translate(82,129)"/>
<path d="M0 0 C2.58396679 -0.08112454 5.16537568 -0.14054748 7.75 -0.1875 C8.47960938 -0.21263672 9.20921875 -0.23777344 9.9609375 -0.26367188 C13.22062158 -0.30812211 15.57930304 -0.22423942 18.484375 1.32421875 C20 3 20 3 20.5 6 C20 9 20 9 18.484375 10.67578125 C14.96088711 12.55386678 11.63347622 12.32129468 7.75 12.1875 C6.63238281 12.16719727 6.63238281 12.16719727 5.4921875 12.14648438 C3.66114584 12.11127204 1.83047831 12.05746851 0 12 C0 8.04 0 4.08 0 0 Z " fill="#050301" transform="translate(48,150)"/>
<path d="M0 0 C2.22855574 -0.0814222 4.45797655 -0.13938079 6.6875 -0.1875 C8.54955078 -0.23970703 8.54955078 -0.23970703 10.44921875 -0.29296875 C14.22981602 0.01896172 16.08795076 0.59797068 19 3 C19.5 6.5625 19.5 6.5625 19 10 C15.20836973 12.52775351 12.19125969 12.22443035 7.8125 12.125 C7.06291016 12.11597656 6.31332031 12.10695312 5.54101562 12.09765625 C3.69387346 12.07412578 1.84689588 12.03825561 0 12 C0 8.04 0 4.08 0 0 Z " fill="#0E0802" transform="translate(47,133)"/>
<path d="M0 0 C8.32914128 -0.26808557 16.44343852 0.76455078 24.6875 1.8125 C26.15776596 1.99617343 27.62806247 2.1796024 29.09838867 2.36279297 C32.72877281 2.81699411 36.35810342 3.27909358 39.98718262 3.74359131 C41.86379236 3.98264879 43.74095864 4.21732615 45.61816406 4.45166016 C48.68406794 4.83455749 51.7484809 5.22733897 54.8125 5.625 C55.6996167 5.73561768 56.5867334 5.84623535 57.50073242 5.96020508 C58.31131104 6.06872803 59.12188965 6.17725098 59.95703125 6.2890625 C60.64772705 6.37881348 61.33842285 6.46856445 62.05004883 6.56103516 C64.25559823 7.0575392 66.02261182 7.91861152 68 9 C56.89352852 8.58460048 45.82175647 8.04860211 34.75 7.0625 C19.19091579 5.67818364 3.59490949 4.86422253 -12 4 C-12 3.67 -12 3.34 -12 3 C-6.06 2.505 -6.06 2.505 0 2 C0 1.34 0 0.68 0 0 Z " fill="#C1A65F" transform="translate(120,77)"/>
<path d="M0 0 C5.61 0 11.22 0 17 0 C15.68 0.33 14.36 0.66 13 1 C13 1.66 13 2.32 13 3 C13.99 3.33 14.98 3.66 16 4 C12.04 4 8.08 4 4 4 C4 13.9 4 23.8 4 34 C10.68377547 33.39238405 17.33634853 32.76468132 24 32 C23.01 32.495 23.01 32.495 22 33 C22 33.66 22 34.32 22 35 C15.35169194 37.21610269 8.00793201 36 1 36 C0.67 24.12 0.34 12.24 0 0 Z " fill="#E7C159" transform="translate(139,129)"/>
<path d="M0 0 C0.66 0 1.32 0 2 0 C2.33 2.64 2.66 5.28 3 8 C6.63 8 10.26 8 14 8 C14.33 8.99 14.66 9.98 15 11 C11.04 11 7.08 11 3 11 C3 15.62 3 20.24 3 25 C13.49679208 24.8461645 13.49679208 24.8461645 23 21 C23.97474816 17.91038542 23.97474816 17.91038542 24 15 C24.99 15 25.98 15 27 15 C27.08090971 16.62418745 27.13914995 18.24951745 27.1875 19.875 C27.23970703 21.23238281 27.23970703 21.23238281 27.29296875 22.6171875 C27.19628906 23.40351563 27.09960938 24.18984375 27 25 C23.60102327 27.26598448 22.43680827 27.23742654 18.45703125 27.1953125 C17.48999268 27.19031738 16.5229541 27.18532227 15.52661133 27.18017578 C13.68812622 27.15286377 13.68812622 27.15286377 11.8125 27.125 C7.914375 27.08375 4.01625 27.0425 0 27 C0 18.09 0 9.18 0 0 Z " fill="#E5BF5A" transform="translate(44,138)"/>
<path d="M0 0 C1.65 0 3.3 0 5 0 C5 12.54 5 25.08 5 38 C3.35 38 1.7 38 0 38 C0 25.46 0 12.92 0 0 Z " fill="#D0AF58" transform="translate(122,129)"/>
<path d="M0 0 C2 3 2 3 2 6 C2.66 6.33 3.32 6.66 4 7 C3.34 8.32 2.68 9.64 2 11 C3.2375 12.051875 3.2375 12.051875 4.5 13.125 C7 16 7 16 7.4375 19.1875 C7 22 7 22 5 24 C4.95875 22.906875 4.9175 21.81375 4.875 20.6875 C4.40850159 16.8570435 4.40850159 16.8570435 1.46875 15.3125 C-2.5990541 13.77333088 -6.06730312 13.44881952 -10.375 13.3125 C-11.11105469 13.27833984 -11.84710938 13.24417969 -12.60546875 13.20898438 C-14.40313853 13.12727211 -16.20154046 13.06194219 -18 13 C-18 16.96 -18 20.92 -18 25 C-13.71 25 -9.42 25 -5 25 C-5 25.33 -5 25.66 -5 26 C-9.62 26 -14.24 26 -19 26 C-19 21.38 -19 16.76 -19 12 C-14.545 11.505 -14.545 11.505 -10 11 C-10 10.67 -10 10.34 -10 10 C-12.97 9.67 -15.94 9.34 -19 9 C-19 8.67 -19 8.34 -19 8 C-17.86820313 7.93941406 -16.73640625 7.87882813 -15.5703125 7.81640625 C-14.08852855 7.73200083 -12.6067584 7.64735283 -11.125 7.5625 C-10.37863281 7.52318359 -9.63226563 7.48386719 -8.86328125 7.44335938 C-4.80013136 7.28426376 -4.80013136 7.28426376 -1 6 C-0.34227572 2.97065509 -0.34227572 2.97065509 0 0 Z " fill="#B89847" transform="translate(66,137)"/>
<path d="M0 0 C0.33 0 0.66 0 1 0 C1.1799928 5.21979128 0.97094808 9.07262981 -1 14 C-0.01 14 0.98 14 2 14 C2 22.91 2 31.82 2 41 C1.67 41 1.34 41 1 41 C1 32.42 1 23.84 1 15 C0.34 15 -0.32 15 -1 15 C-1.22558594 15.58652344 -1.45117188 16.17304687 -1.68359375 16.77734375 C-5.37844322 23.01582847 -14.31153895 26.59385976 -21.05078125 28.578125 C-23.41106981 29.08896902 -25.59528781 29.23271408 -28 29 C-25.72370251 26.72370251 -23.33106929 25.6796097 -20.43823242 24.33569336 C-12.03030198 20.40423777 -6.21701619 17.01234256 -2.1875 8.375 C-1.1965007 5.55847567 -0.446283 2.94546782 0 0 Z " fill="#D3B35E" transform="translate(50,34)"/>
<path d="M0 0 C4.69912787 0.62854577 9.29876364 1.46543038 13.9375 2.4375 C32.31465134 6.03174166 51.33499139 6.35220202 70 7 C70 7.33 70 7.66 70 8 C45.93288128 8.30595789 22.73161026 7.39474264 -1 3 C-0.67 2.01 -0.34 1.02 0 0 Z " fill="#A69159" transform="translate(102,60)"/>
<path d="M0 0 C1.05510773 0.00297592 1.05510773 0.00297592 2.13153076 0.00601196 C3.22325592 0.00403305 3.22325592 0.00403305 4.33703613 0.00201416 C6.70737938 0.0000933 9.07760575 0.00643329 11.44793701 0.01382446 C12.24511139 0.01471069 13.04228577 0.01559692 13.86361694 0.01651001 C25.27172527 0.03152315 36.63388499 0.21950713 48.01043701 1.13882446 C48.01043701 1.46882446 48.01043701 1.79882446 48.01043701 2.13882446 C30.85043701 2.13882446 13.69043701 2.13882446 -3.98956299 2.13882446 C-4.31956299 7.08882446 -4.64956299 12.03882446 -4.98956299 17.13882446 C-5.31956299 17.13882446 -5.64956299 17.13882446 -5.98956299 17.13882446 C-6.01640978 14.49292432 -6.03632655 11.84729351 -6.05206299 9.20132446 C-6.06044189 8.44657837 -6.0688208 7.69183228 -6.07745361 6.91421509 C-6.0860874 4.98888133 -6.04180632 3.06346865 -5.98956299 1.13882446 C-4.30886989 -0.54186864 -2.24330095 0.01085502 0 0 Z " fill="#3E2D11" transform="translate(59.98956298828125,78.86117553710938)"/>
<path d="M0 0 C3.61618755 2.97330976 5.70362203 5.5050211 7 10 C6.5390625 12.89453125 6.5390625 12.89453125 5.625 15.8125 C5.32851562 16.78832031 5.03203125 17.76414063 4.7265625 18.76953125 C4.48679688 19.50558594 4.24703125 20.24164063 4 21 C3.67 21 3.34 21 3 21 C2.96132812 20.02160156 2.96132812 20.02160156 2.921875 19.0234375 C2.55281797 13.33660416 2.02243205 9.34857519 -2 5 C-5.10935018 3.57220726 -5.10935018 3.57220726 -8 3 C-8 2.34 -8 1.68 -8 1 C-8.99 1 -9.98 1 -11 1 C-11 0.34 -11 -0.32 -11 -1 C-6.95900085 -2.61639966 -3.94385187 -1.52218844 0 0 Z " fill="#D8B45C" transform="translate(163,131)"/>
<path d="M0 0 C0.99 0.33 1.98 0.66 3 1 C2.34 1 1.68 1 1 1 C1 13.87 1 26.74 1 40 C-0.32 39.67 -1.64 39.34 -3 39 C-2.67 30.09 -2.34 21.18 -2 12 C-1.34 12 -0.68 12 0 12 C0 8.04 0 4.08 0 0 Z " fill="#E5BE61" transform="translate(54,36)"/>
<path d="M0 0 C0 0.99 0 1.98 0 3 C-2.39891991 5.39891991 -3.35647609 5.38226593 -6.65625 5.78125 C-8.06777344 5.96107422 -8.06777344 5.96107422 -9.5078125 6.14453125 C-10.49523437 6.26183594 -11.48265625 6.37914063 -12.5 6.5 C-19.74175082 7.38813925 -26.86547478 8.46056794 -34 10 C-30.37513633 7.1109548 -26.77832079 5.74708174 -22.375 4.4375 C-21.6644043 4.22134033 -20.95380859 4.00518066 -20.22167969 3.7824707 C-13.5407822 1.78927058 -7.0055406 0 0 0 Z " fill="#D6B861" transform="translate(40,76)"/>
<path d="M0 0 C0.33 0 0.66 0 1 0 C1.66 2.31 2.32 4.62 3 7 C5.31 7.33 7.62 7.66 10 8 C10 8.66 10 9.32 10 10 C7.69 10.33 5.38 10.66 3 11 C2.67 15.62 2.34 20.24 2 25 C1.01 25 0.02 25 -1 25 C-1.02886984 21.02084841 -1.04675406 17.04172347 -1.0625 13.0625 C-1.07087891 11.92619141 -1.07925781 10.78988281 -1.08789062 9.61914062 C-1.09111328 8.53955078 -1.09433594 7.45996094 -1.09765625 6.34765625 C-1.10289307 5.34742432 -1.10812988 4.34719238 -1.11352539 3.31665039 C-1 1 -1 1 0 0 Z " fill="#E9C156" transform="translate(84,141)"/>
<path d="M0 0 C5.61 0 11.22 0 17 0 C15.68 0.33 14.36 0.66 13 1 C13 1.66 13 2.32 13 3 C13.99 3.33 14.98 3.66 16 4 C12.04 4 8.08 4 4 4 C4 13.57 4 23.14 4 33 C3.67 33 3.34 33 3 33 C2.67 23.43 2.34 13.86 2 4 C1.34 3.67 0.68 3.34 0 3 C0 2.01 0 1.02 0 0 Z " fill="#E2C068" transform="translate(139,129)"/>
<path d="M0 0 C0.33 0 0.66 0 1 0 C1 12.54 1 25.08 1 38 C6.28 38 11.56 38 17 38 C17 38.33 17 38.66 17 39 C11.06 39 5.12 39 -1 39 C-1.81603396 34.10379626 -2.00411991 30.05400728 -1.66015625 25.1953125 C-1.61434921 24.4713327 -1.56854218 23.74735291 -1.52134705 23.00143433 C-1.3748205 20.70881959 -1.21881421 18.41696607 -1.0625 16.125 C-0.96095958 14.56254075 -0.86004175 13.0000409 -0.75976562 11.4375 C-0.51370935 7.62449272 -0.25915437 3.81213854 0 0 Z " fill="#291B02" transform="translate(138,129)"/>
<path d="M0 0 C1.07378906 0.48210938 2.14757812 0.96421875 3.25390625 1.4609375 C4.6899968 2.09919997 6.12620079 2.73720722 7.5625 3.375 C8.26697266 3.69210938 8.97144531 4.00921875 9.69726562 4.3359375 C14.07662336 6.27334922 18.36448919 7.7939144 23 9 C23 9.99 23 10.98 23 12 C15.74601342 11.52432875 9.73187777 9.70533406 3 7 C3.66 6.67 4.32 6.34 5 6 C5 5.34 5 4.68 5 4 C4.360625 3.896875 3.72125 3.79375 3.0625 3.6875 C2.381875 3.460625 1.70125 3.23375 1 3 C0.67 2.01 0.34 1.02 0 0 Z " fill="#D0B059" transform="translate(79,50)"/>
<path d="M0 0 C0.66 0 1.32 0 2 0 C2.57251908 12.91348601 2.57251908 12.91348601 -1 19 C-1.99 19.66 -2.98 20.32 -4 21 C-4 20.34 -4 19.68 -4 19 C-4.99 18.67 -5.98 18.34 -7 18 C-6.401875 17.071875 -5.80375 16.14375 -5.1875 15.1875 C-2.44109489 10.43748974 -1.26514236 5.30017975 0 0 Z " fill="#DCB75B" transform="translate(169,141)"/>
<path d="M0 0 C3.19249822 0.29288975 4.09246854 1.09675516 6.359375 3.46875 C7.14828125 4.4690625 7.9371875 5.469375 8.75 6.5 C9.94882813 8.00046875 9.94882813 8.00046875 11.171875 9.53125 C13 12 13 12 13 13 C10.4375 13.5 10.4375 13.5 7 13 C4.17466242 10.68220809 1.85800388 8.1498113 0 5 C-0.1953125 2.23046875 -0.1953125 2.23046875 0 0 Z " fill="#D4B45B" transform="translate(101,154)"/>
<path d="M0 0 C0.33 0 0.66 0 1 0 C1.1799928 5.21979128 0.97094808 9.07262981 -1 14 C-0.01 14 0.98 14 2 14 C2 22.91 2 31.82 2 41 C1.67 41 1.34 41 1 41 C1 32.42 1 23.84 1 15 C0.34 15 -0.32 15 -1 15 C-1.33 15.99 -1.66 16.98 -2 18 C-2.66 17.67 -3.32 17.34 -4 17 C-3.35729017 11.0870696 -1.80996216 5.65755469 0 0 Z " fill="#C4A757" transform="translate(50,34)"/>
<path d="M0 0 C2.4375 0.75 2.4375 0.75 4.4375 2.75 C4.70741906 5.43839385 4.52487357 8.04141936 4.4375 10.75 C3.4475 11.08 2.4575 11.41 1.4375 11.75 C0.81875 10.1103125 0.81875 10.1103125 0.1875 8.4375 C-1.16535591 5.23984058 -2.50305844 3.54346574 -5.5625 1.75 C-2.5625 -0.25 -2.5625 -0.25 0 0 Z " fill="#D4B15B" transform="translate(66.5625,131.25)"/>
<path d="M0 0 C1.4370809 -0.05422947 2.87475462 -0.09289723 4.3125 -0.125 C5.11300781 -0.14820312 5.91351563 -0.17140625 6.73828125 -0.1953125 C9 0 9 0 12 2 C12 2.66 12 3.32 12 4 C4.08 4 -3.84 4 -12 4 C-12 3.67 -12 3.34 -12 3 C-6.06 2.505 -6.06 2.505 0 2 C0 1.34 0 0.68 0 0 Z " fill="#CCAB5A" transform="translate(120,77)"/>
<path d="M0 0 C3.99926986 2.97088618 6.92118304 6.12948725 10 10 C7.69 10.66 5.38 11.32 3 12 C1.68 10.35 0.36 8.7 -1 7 C-0.34 7 0.32 7 1 7 C0.67 4.69 0.34 2.38 0 0 Z " fill="#CDAF55" transform="translate(60,34)"/>
<path d="M0 0 C3.3 0 6.6 0 10 0 C10 1.32 10 2.64 10 4 C5.05 4 0.1 4 -5 4 C-5 3.67 -5 3.34 -5 3 C-3.35 3 -1.7 3 0 3 C0 2.01 0 1.02 0 0 Z " fill="#E6C05D" transform="translate(40,76)"/>
<path d="M0 0 C6.0546875 -0.1953125 6.0546875 -0.1953125 8 0 C8.66 0.66 9.32 1.32 10 2 C7.39048764 3.30475618 5.47298715 3.11301572 2.5546875 3.09765625 C0.94013672 3.09282227 0.94013672 3.09282227 -0.70703125 3.08789062 C-1.83496094 3.07951172 -2.96289062 3.07113281 -4.125 3.0625 C-5.26066406 3.05798828 -6.39632812 3.05347656 -7.56640625 3.04882812 C-10.37765638 3.03701615 -13.1888023 3.02054507 -16 3 C-16 2.67 -16 2.34 -16 2 C-10.72 2 -5.44 2 0 2 C0 1.34 0 0.68 0 0 Z " fill="#E5C061" transform="translate(112,77)"/>
<path d="M0 0 C5.16483516 7.74725275 5.16483516 7.74725275 4.6875 11.375 C4.460625 11.91125 4.23375 12.4475 4 13 C2.68 13.33 1.36 13.66 0 14 C0 9.38 0 4.76 0 0 Z " fill="#E3C05B" transform="translate(51,17)"/>
<path d="M0 0 C0 0.99 0 1.98 0 3 C-2.64 3 -5.28 3 -8 3 C-8 2.34 -8 1.68 -8 1 C-8.99 1 -9.98 1 -11 1 C-11 0.34 -11 -0.32 -11 -1 C-6.99799622 -2.60080151 -3.95443764 -1.29279692 0 0 Z " fill="#DBB758" transform="translate(163,131)"/>
<path d="M0 0 C0.99 0 1.98 0 3 0 C3 10.23 3 20.46 3 31 C2.67 31 2.34 31 2 31 C2 21.76 2 12.52 2 3 C1.34 3 0.68 3 0 3 C0 2.01 0 1.02 0 0 Z " fill="#E3C15E" transform="translate(123,129)"/>
<path d="M0 0 C0.66 0 1.32 0 2 0 C2.96070434 2.88211302 3.10581883 4.69850044 3.0625 7.6875 C3.05347656 8.49574219 3.04445313 9.30398437 3.03515625 10.13671875 C3.02355469 10.75160156 3.01195313 11.36648437 3 12 C1.68 12 0.36 12 -1 12 C-0.67 8.04 -0.34 4.08 0 0 Z " fill="#E7BF56" transform="translate(107,135)"/>
<path d="M0 0 C5.94 0.33 11.88 0.66 18 1 C18 1.33 18 1.66 18 2 C17.31035156 2.06058594 16.62070313 2.12117188 15.91015625 2.18359375 C9.93024304 2.71678217 3.96448472 3.31555093 -2 4 C-0.68 3.67 0.64 3.34 2 3 C2 2.34 2 1.68 2 1 C1.34 0.67 0.68 0.34 0 0 Z " fill="#C3A452" transform="translate(130,78)"/>
<path d="M0 0 C-0.99 1.485 -0.99 1.485 -2 3 C-2.66 3 -3.32 3 -4 3 C-4.33 2.34 -4.66 1.68 -5 1 C-5.763125 1.350625 -6.52625 1.70125 -7.3125 2.0625 C-12.36755261 3.34768287 -16.8764457 2.67463171 -22 2 C-22 1.67 -22 1.34 -22 1 C-20.64455078 0.90912109 -20.64455078 0.90912109 -19.26171875 0.81640625 C-17.49248047 0.69072266 -17.49248047 0.69072266 -15.6875 0.5625 C-13.92986328 0.44068359 -13.92986328 0.44068359 -12.13671875 0.31640625 C-3.01738411 -0.60347682 -3.01738411 -0.60347682 0 0 Z " fill="#DDBA63" transform="translate(109,147)"/>
<path d="M0 0 C1.5 1.125 1.5 1.125 3 3 C3.4938728 7.4448552 2.57907394 10.8549309 1 15 C0.67 15 0.34 15 0 15 C-0.19517554 13.06325815 -0.38087873 11.12555991 -0.5625 9.1875 C-0.66691406 8.10855469 -0.77132812 7.02960938 -0.87890625 5.91796875 C-1 3 -1 3 0 0 Z " fill="#D1AB4B" transform="translate(166,137)"/>
<path d="M0 0 C0 0.66 0 1.32 0 2 C-9.41002278 5.44419134 -9.41002278 5.44419134 -14 5 C-11.90202645 2.90202645 -10.24390344 2.03212028 -7.5625 0.8125 C-6.78003906 0.44769531 -5.99757813 0.08289062 -5.19140625 -0.29296875 C-3 -1 -3 -1 0 0 Z " fill="#C1A861" transform="translate(36,58)"/>
<path d="M0 0 C-0.99 0.495 -0.99 0.495 -2 1 C-2 1.66 -2 2.32 -2 3 C-4.88211302 3.96070434 -6.69850044 4.10581883 -9.6875 4.0625 C-10.89986328 4.04896484 -10.89986328 4.04896484 -12.13671875 4.03515625 C-13.05904297 4.01775391 -13.05904297 4.01775391 -14 4 C-9.2157506 0.8105004 -5.77575443 -0.26863974 0 0 Z " fill="#E1BB54" transform="translate(163,161)"/>
<path d="M0 0 C0 0.66 0 1.32 0 2 C-2.10170656 2.53067341 -4.20647598 3.04922857 -6.3125 3.5625 C-7.48425781 3.85253906 -8.65601563 4.14257812 -9.86328125 4.44140625 C-13 5 -13 5 -16 4 C-14.08959948 3.1319092 -12.17139263 2.28098217 -10.25 1.4375 C-9.18265625 0.96183594 -8.1153125 0.48617187 -7.015625 -0.00390625 C-4.01630163 -0.9946154 -2.86578759 -1.16161779 0 0 Z " fill="#B79F62" transform="translate(22,81)"/>
<path d="M0 0 C0 0.99 0 1.98 0 3 C-0.66 3.66 -1.32 4.32 -2 5 C-4.1640625 4.9765625 -4.1640625 4.9765625 -6.625 4.625 C-7.44226562 4.51414062 -8.25953125 4.40328125 -9.1015625 4.2890625 C-9.72804688 4.19367188 -10.35453125 4.09828125 -11 4 C-10.67 3.01 -10.34 2.02 -10 1 C-6.56484998 0.37542727 -3.50935186 0 0 0 Z " fill="#CAA953" transform="translate(40,76)"/>
<path d="M0 0 C2 3 2 3 2 6 C2.66 6.33 3.32 6.66 4 7 C2.68 8.32 1.36 9.64 0 11 C0 10.01 0 9.02 0 8 C-0.99 7.67 -1.98 7.34 -3 7 C-2.34 6.67 -1.68 6.34 -1 6 C-0.34227572 2.97065509 -0.34227572 2.97065509 0 0 Z " fill="#CAAB52" transform="translate(66,137)"/>
<path d="M0 0 C0.33 0.66 0.66 1.32 1 2 C1.99 2.33 2.98 2.66 4 3 C4.33 3.99 4.66 4.98 5 6 C3.68 6.33 2.36 6.66 1 7 C-0.32 5.35 -1.64 3.7 -3 2 C-2.34 2 -1.68 2 -1 2 C-0.67 1.34 -0.34 0.68 0 0 Z " fill="#D7B452" transform="translate(62,39)"/>
<path d="M0 0 C3 1 3 1 5 4 C5.99 4.33 6.98 4.66 8 5 C8 5.66 8 6.32 8 7 C5.03 6.505 5.03 6.505 2 6 C1.34 4.02 0.68 2.04 0 0 Z " fill="#E6BD5E" transform="translate(76,49)"/>
<path d="M0 0 C0.66 0.99 1.32 1.98 2 3 C1.67 3.99 1.34 4.98 1 6 C1 5.34 1 4.68 1 4 C-0.175625 4.0928125 -0.175625 4.0928125 -1.375 4.1875 C-2.24125 4.125625 -3.1075 4.06375 -4 4 C-4.66 3.01 -5.32 2.02 -6 1 C-3 0 -3 0 0 0 Z " fill="#E8BF5C" transform="translate(70,44)"/>
<path d="M0 0 C1.32 0.66 2.64 1.32 4 2 C3 4 3 4 1.1875 4.8125 C-1 5 -1 5 -3.25 3.5625 C-3.8275 3.046875 -4.405 2.53125 -5 2 C-3.35 2 -1.7 2 0 2 C0 1.34 0 0.68 0 0 Z " fill="#CFAF59" transform="translate(163,132)"/>
<path d="M0 0 C0 0.99 0 1.98 0 3 C-2.875 3.125 -2.875 3.125 -6 3 C-6.66 2.34 -7.32 1.68 -8 1 C-5.07175348 0.02391783 -3.04386724 -0.08226668 0 0 Z " fill="#DBB755" transform="translate(96,77)"/>
<path d="M0 0 C0.66 0 1.32 0 2 0 C0.90931332 3.77545388 0.0916909 6.47043472 -3 9 C-3.6875 7.1875 -3.6875 7.1875 -4 5 C-2.625 3.375 -2.625 3.375 -1 2 C-0.67 1.34 -0.34 0.68 0 0 Z " fill="#1C0E02" transform="translate(47,40)"/>
<path d="M0 0 C1.99097846 2.98646769 2.94124926 5.59687262 4 9 C2.68 8.67 1.36 8.34 0 8 C0 5.36 0 2.72 0 0 Z " fill="#C7AB67" transform="translate(51,17)"/>
<path d="M0 0 C1.32 0 2.64 0 4 0 C3.625 1.9375 3.625 1.9375 3 4 C2.01 4.495 2.01 4.495 1 5 C1 4.34 1 3.68 1 3 C0.01 2.67 -0.98 2.34 -2 2 C-1.34 1.34 -0.68 0.68 0 0 Z " fill="#E3BE62" transform="translate(164,157)"/>
<path d="M0 0 C2 2 2 2 2.1953125 3.9453125 C2.13020833 5.96354167 2.06510417 7.98177083 2 10 C-0.13262124 6.80106814 -0.59021548 4.77001757 -1 1 C-0.67 0.67 -0.34 0.34 0 0 Z " fill="#E8C153" transform="translate(67,133)"/>
<path d="M0 0 C0 0.66 0 1.32 0 2 C0.99 2.33 1.98 2.66 3 3 C1.02 3 -0.96 3 -3 3 C-3 2.34 -3 1.68 -3 1 C-4.32 0.67 -5.64 0.34 -7 0 C-3.98968256 -0.93423645 -3.13349732 -1.04449911 0 0 Z " fill="#292118" transform="translate(191,84)"/>
<path d="M0 0 C2.88575819 0.39803561 3.82189513 0.79009069 5.75 3.0625 C6.1625 3.701875 6.575 4.34125 7 5 C6.67 5.66 6.34 6.32 6 7 C1.125 2.25 1.125 2.25 0 0 Z " fill="#1B0F06" transform="translate(62,35)"/>
</svg>
