<?xml version="1.0" encoding="UTF-8"?>
<svg xmlns="http://www.w3.org/2000/svg" viewBox="233 3 238 248" width="200" height="200">
<path d="M0 0 C8.06144038 -0.08436391 16.12124057 -0.16444196 24.18273926 -0.20700073 C27.93842865 -0.2279438 31.69374476 -0.25582815 35.44921875 -0.30175781 C39.08028751 -0.34587766 42.71099913 -0.36927288 46.34231567 -0.37950897 C48.3714783 -0.39027472 50.40050132 -0.42138881 52.42944336 -0.45318604 C71.70739804 -0.45773587 89.78162571 5.64409209 104 19 C115 30.39487179 115 30.39487179 115 34 C102.99239271 35.38352232 102.99239271 35.38352232 98.41796875 32.20703125 C96.95534565 30.63372316 95.52970676 29.02532076 94.140625 27.38671875 C86.37041125 18.72321401 72.66020572 13.66870865 61.22554016 12.7857666 C58.1378998 12.67548282 55.0542688 12.61931718 51.96484375 12.5859375 C50.84557999 12.56657135 49.72631622 12.5472052 48.57313538 12.5272522 C45.02799905 12.46787777 41.4828295 12.42124029 37.9375 12.375 C35.52147088 12.33678143 33.10545482 12.29772748 30.68945312 12.2578125 C24.79303998 12.16065224 18.89675168 12.08074831 13 12 C13.33 23.55 13.66 35.1 14 47 C16.50847518 44.86132495 16.50847518 44.86132495 17 40 C64.19 40 111.38 40 160 40 C160 53.2 160 66.4 160 80 C151.42 80 142.84 80 134 80 C134 76.04 134 72.08 134 68 C138.62 68 143.24 68 148 68 C148 62.72 148 57.44 148 52 C138.43 52.33 128.86 52.66 119 53 C119 53.99 119 54.98 119 56 C121.31 56.33 123.62 56.66 126 57 C132.35985698 83.28740884 129.86824228 111.96996625 115.92749023 135.53564453 C104.49793728 153.7498522 88.36089566 163.5776098 68 169 C62.72781357 170.17082721 58.69398417 170 53 170 C53 178.91 53 187.82 53 197 C58.28 197 63.56 197 69 197 C69 189.41 69 181.82 69 174 C74.445 173.01 74.445 173.01 80 172 C80 183.88 80 195.76 80 208 C67.46 208 54.92 208 42 208 C42 165.76 42 123.52 42 80 C15.6 80 -10.8 80 -38 80 C-38 66.8 -38 53.6 -38 40 C-29.646875 39.938125 -29.646875 39.938125 -21.125 39.875 C-19.36816895 39.85679199 -17.61133789 39.83858398 -15.80126953 39.81982422 C-14.41178697 39.81398407 -13.02230099 39.80888738 -11.6328125 39.8046875 C-10.90892334 39.79445557 -10.18503418 39.78422363 -9.43920898 39.77368164 C-7.62457064 39.77304604 -5.81048027 39.87722425 -4 40 C-3.34 40.66 -2.68 41.32 -2 42 C-1.67 42 -1.34 42 -1 42 C-0.67 28.14 -0.34 14.28 0 0 Z " fill="#F1EFE8" transform="translate(291,23)"/>
<path d="M0 0 C10.89 0 21.78 0 33 0 C33 3.96 33 7.92 33 12 C26.07 12 19.14 12 12 12 C12 17.28 12 22.56 12 28 C38.07 28 64.14 28 91 28 C91 57.7 91 87.4 91 118 C106.56799984 115.92426669 117.79719497 113.75787808 130 104 C130.8353125 103.37222656 131.670625 102.74445313 132.53125 102.09765625 C145.77985811 90.84053196 152.50902378 71.86459766 154 55 C154.68295662 41.97247412 154.05652238 29.69912275 151 17 C155.29 17 159.58 17 164 17 C170.35985698 43.28740884 167.86824228 71.96996625 153.92749023 95.53564453 C142.49793728 113.7498522 126.36089566 123.5776098 106 129 C100.72781357 130.17082721 96.69398417 130 91 130 C91 138.91 91 147.82 91 157 C96.28 157 101.56 157 107 157 C107 149.41 107 141.82 107 134 C112.445 133.01 112.445 133.01 118 132 C118 143.88 118 155.76 118 168 C105.46 168 92.92 168 80 168 C80 125.76 80 83.52 80 40 C53.6 40 27.2 40 0 40 C0 26.8 0 13.6 0 0 Z " fill="#F1EFE8" transform="translate(253,63)"/>
<path d="M0 0 C46.86 0 93.72 0 142 0 C142 13.2 142 26.4 142 40 C133.42 40 124.84 40 116 40 C116 36.04 116 32.08 116 28 C120.95 28 125.9 28 131 28 C131 22.39 131 16.78 131 11 C87.77 11 44.54 11 0 11 C0 7.37 0 3.74 0 0 Z " fill="#F1EFE8" transform="translate(309,63)"/>
<path d="M0 0 C10.065 -0.0825 20.13 -0.165 30.5 -0.25 C33.64337891 -0.28641602 36.78675781 -0.32283203 40.02539062 -0.36035156 C63.85844293 -0.52290599 84.73885879 1.84655366 103 19 C114 30.39487179 114 30.39487179 114 34 C101.99239271 35.38352232 101.99239271 35.38352232 97.41796875 32.20703125 C95.95534565 30.63372316 94.52970676 29.02532076 93.140625 27.38671875 C89.7007406 23.55137319 85.52896797 21.35477441 81 19 C80.30519531 18.62101562 79.61039062 18.24203125 78.89453125 17.8515625 C64.75554784 10.79533438 48.43434191 11.48145739 33.0625 11.3125 C25.781875 11.209375 18.50125 11.10625 11 11 C11 27.83 11 44.66 11 62 C7.37 62 3.74 62 0 62 C0 41.54 0 21.08 0 0 Z " fill="#F1EFE8" transform="translate(292,23)"/>
<path d="M0 0 C3.63 0 7.26 0 11 0 C11 23.76 11 47.52 11 72 C18.92 72 26.84 72 35 72 C35 75.96 35 79.92 35 84 C23.45 84 11.9 84 0 84 C0 56.28 0 28.56 0 0 Z " fill="#F1EFE8" transform="translate(292,109)"/>
<path d="M0 0 C13.53 0 27.06 0 41 0 C41.495 5.445 41.495 5.445 42 11 C31.77 11 21.54 11 11 11 C11 32.78 11 54.56 11 77 C2 81 2 81 0 81 C0 54.27 0 27.54 0 0 Z " fill="#F1EFE8" transform="translate(360,92)"/>
<path d="M0 0 C-1.875 5.75 -1.875 5.75 -3 8 C-5.64 8.33 -8.28 8.66 -11 9 C-11 16.59 -11 24.18 -11 32 C-16.28 32 -21.56 32 -27 32 C-27 23.09 -27 14.18 -27 5 C-24.73125 4.731875 -22.4625 4.46375 -20.125 4.1875 C-14.50272801 3.48112296 -9.24081222 2.40811402 -3.85546875 0.5859375 C-2 0 -2 0 0 0 Z " fill="#F1EFE8" transform="translate(371,188)"/>
</svg>
